<?xml version="1.0" encoding="UTF-8"?>
<!DOCTYPE svg PUBLIC "-//W3C//DTD SVG 1.1//EN" "http://www.w3.org/Graphics/SVG/1.1/DTD/svg11.dtd">
<!-- Creator: CorelDRAW 2018 (64-Bit) -->
<svg xmlns="http://www.w3.org/2000/svg" xml:space="preserve" width="16mm" height="9mm" version="1.1" style="shape-rendering:geometricPrecision; text-rendering:geometricPrecision; image-rendering:optimizeQuality; fill-rule:evenodd; clip-rule:evenodd"
viewBox="0 0 1600 900"
 xmlns:xlink="http://www.w3.org/1999/xlink">
 <defs>
  <style type="text/css">
   <![CDATA[
    .fil0 {fill:none}
    .fil1 {fill:#4D4CD0;fill-opacity:0.031373}
    .fil2 {fill:#B8B8FF;fill-opacity:0.325490}
   ]]>
  </style>
 </defs>
 <g id="Слой_x0020_1">
  <metadata id="CorelCorpID_0Corel-Layer"/>
  <rect class="fil0" x="-0" y="0" width="1600" height="900"/>
  <g id="_2317624997232">
   <g id="_2061809692288">
    <g id="Page-1">
     <g id="Paiment-plans">
      <g id="Group-7">
       <g id="Group-6">
        <path id="Rectangle" class="fil1" d="M573.8 587.12c23.13,-93.28 127.66,-155.52 252.97,-116.01 59.2,18.66 161.23,104.2 306.09,256.61 121.67,-24.48 204.91,-24.48 249.7,0 44.79,24.49 61.62,64.08 50.49,118.79 -419.37,-0.56 -629.05,-0.56 -629.05,0 -178.98,-25.99 -257.89,-147.7 -230.2,-259.39l0 0z"/>
        <path class="fil2" d="M789.12 846.51l648.13 0c0.49,0 0.88,0.4 0.88,0.88l0 0c0,0.49 -0.39,0.88 -0.88,0.88l-648.13 0c-0.48,0 -0.87,-0.39 -0.87,-0.88l0 0c0,-0.48 0.39,-0.88 0.88,-0.88l-0.01 0z"/>
       </g>
      </g>
     </g>
    </g>
   </g>
  </g>
 </g>
</svg>
