<?xml version="1.0" encoding="UTF-8"?>
<!DOCTYPE svg PUBLIC "-//W3C//DTD SVG 1.1//EN" "http://www.w3.org/Graphics/SVG/1.1/DTD/svg11.dtd">
<!-- Creator: CorelDRAW 2018 (64-Bit) -->
<svg xmlns="http://www.w3.org/2000/svg" xml:space="preserve" width="16mm" height="9mm" version="1.1" style="shape-rendering:geometricPrecision; text-rendering:geometricPrecision; image-rendering:optimizeQuality; fill-rule:evenodd; clip-rule:evenodd"
viewBox="0 0 1600 900"
 xmlns:xlink="http://www.w3.org/1999/xlink">
 <defs>
  <style type="text/css">
   <![CDATA[
    .fil6 {fill:none}
    .fil1 {fill:#6236FF}
    .fil5 {fill:white}
    .fil3 {fill:#6236FF;fill-opacity:0.137255}
    .fil2 {fill:#6236FF;fill-opacity:0.231373}
    .fil4 {fill:#6236FF;fill-opacity:0.415686}
    .fil0 {fill:#6236FF;fill-opacity:0.537255}
   ]]>
  </style>
   <clipPath id="id0">
    <path d="M1600 900l-1600 0 0 -900 1600 0 0 900z"/>
   </clipPath>
 </defs>
 <g id="Слой_x0020_1">
  <metadata id="CorelCorpID_0Corel-Layer"/>
  <g>
  </g>
  <g style="clip-path:url(#id0)">
   <g>
    <g id="_1830884668224">
    </g>
    <path id="Rectangle" class="fil0" d="M454.68 844.07c13.14,2.33 27.21,3.5 42.22,3.5 15.01,0 29.08,-1.17 42.22,-3.5l-7.68 55.97 -69.08 0 -7.68 -55.97z"/>
    <ellipse id="Oval" class="fil1" cx="497.09" cy="844.07" rx="42.41" ry="3.5"/>
    <path id="Rectangle_0" class="fil1" d="M523.74 751.39c-4.4,-20.69 -28.37,-17.93 -34.35,-3.11 -5.99,14.82 6.88,26.82 4.88,30.21 -1.99,3.39 -10.41,-5.01 -13.87,3.39 -3.46,8.4 17.97,20.62 12.3,27.71 -5.67,7.1 -14.03,-14.74 -22.69,-7.03 -8.67,7.7 16.03,24.05 -1.4,41.51 11.79,0 31.2,0 55.13,0 -9.32,-21.12 26.31,-38.02 17.56,-50.1 -8.75,-12.09 -23.14,11.39 -26.88,1.22 -3.74,-10.16 13.72,-23.09 9.32,-43.8z"/>
    <path id="Rectangle_1" class="fil2" d="M464.28 784.55c2.84,-13.3 18.3,-11.52 22.15,-2 3.86,9.52 -4.44,17.22 -3.15,19.4 1.29,2.18 6.71,-3.21 8.94,2.18 2.24,5.39 -11.58,13.24 -7.93,17.8 3.66,4.55 9.05,-9.47 14.63,-4.52 5.59,4.94 -10.33,15.45 0.9,26.66 -7.6,0 -14.1,0 -29.53,0 6.01,-13.57 -15.61,-13.57 -13.47,-23.95 2.13,-10.38 11.06,-0.91 13.47,-7.44 2.41,-6.53 -8.84,-14.84 -6.01,-28.13z"/>
    <path id="Rectangle_2" class="fil1" d="M523.74 751.39c-4.4,-20.69 -28.37,-17.93 -34.35,-3.11 -5.99,14.82 6.88,26.82 4.88,30.21 -1.99,3.39 -10.41,-5.01 -13.87,3.39 -3.46,8.4 17.97,20.62 12.3,27.71 -5.67,7.1 -14.03,-14.74 -22.69,-7.03 -8.67,7.7 16.03,24.05 -1.4,41.51 11.79,0 31.2,0 55.13,0 -9.32,-21.12 26.31,-38.02 17.56,-50.1 -8.75,-12.09 -23.14,11.39 -26.88,1.22 -3.74,-10.16 13.72,-23.09 9.32,-43.8z"/>
    <path id="Rectangle_3" class="fil2" d="M464.28 784.55c2.84,-13.3 18.3,-11.52 22.15,-2 3.86,9.52 -4.44,17.22 -3.15,19.4 1.29,2.18 6.71,-3.21 8.94,2.18 2.24,5.39 -11.58,13.24 -7.93,17.8 3.66,4.55 9.05,-9.47 14.63,-4.52 5.59,4.94 -10.33,15.45 0.9,26.66 -7.6,0 -14.1,0 -29.53,0 6.01,-13.57 -15.61,-13.57 -13.47,-23.95 2.13,-10.38 11.06,-0.91 13.47,-7.44 2.41,-6.53 -8.84,-14.84 -6.01,-28.13z"/>
    <path class="fil3" d="M512.96 612.49c-257.5,-206.59 489.44,-304.66 489.44,-462.93 0,-105.51 -334.14,-189.48 -1002.42,-251.9l0 1059.55c513.65,-92.08 684.64,-206.99 512.98,-344.72l0 0z"/>
    <path id="Oval_6" class="fil4" d="M1056.09 189.18c0,-4.84 -54.32,-8.76 -121.33,-8.76 -67.01,0 -121.33,3.92 -121.33,8.76 0,4.84 54.32,8.76 121.33,8.76 67.01,0 121.33,-3.92 121.33,-8.76z"/>
    <circle id="Oval_7" class="fil5" cx="934.76" cy="188.75" r="27.59"/>
    <path id="Combined-Shape" class="fil1" d="M1056.09 189.18c0,-4.84 -54.32,-8.76 -121.33,-8.76 -67.01,0 -121.33,3.92 -121.33,8.76 0,-4.53 14.92,-90.03 102.49,-100.87l0 -16.07c0,-9.05 6.39,-16.61 14.9,-18.43l0 -49.9c0,-2.18 1.76,-3.95 3.94,-3.95 2.18,0 3.94,1.77 3.94,3.95l0 49.9c8.51,1.82 14.89,9.38 14.89,18.43l0 16.07c87.58,10.84 102.5,96.34 102.5,100.87z"/>
   </g>
  </g>
  <polygon class="fil6" points="1600,900 -0,900 -0,0 1600,0 "/>
 </g>
</svg>
