<?xml version="1.0" encoding="UTF-8"?>
<!DOCTYPE svg PUBLIC "-//W3C//DTD SVG 1.1//EN" "http://www.w3.org/Graphics/SVG/1.1/DTD/svg11.dtd">
<!-- Creator: CorelDRAW 2018 (64-Bit) -->
<svg xmlns="http://www.w3.org/2000/svg" xml:space="preserve" width="16mm" height="9mm" version="1.1" style="shape-rendering:geometricPrecision; text-rendering:geometricPrecision; image-rendering:optimizeQuality; fill-rule:evenodd; clip-rule:evenodd"
viewBox="0 0 1600 900"
 xmlns:xlink="http://www.w3.org/1999/xlink">
 <defs>
  <style type="text/css">
   <![CDATA[
    .fil26 {fill:none}
    .fil16 {fill:black}
    .fil21 {fill:#3F3EC2}
    .fil19 {fill:#414141}
    .fil25 {fill:#4544CE}
    .fil14 {fill:#4D4CD0}
    .fil10 {fill:#542CDF}
    .fil9 {fill:#663CFC}
    .fil20 {fill:#6F6EF4}
    .fil24 {fill:#8281F2}
    .fil8 {fill:#9578FF}
    .fil1 {fill:#B8B8FF}
    .fil22 {fill:#DA54FF}
    .fil13 {fill:#E3B330}
    .fil3 {fill:#F6F6F6}
    .fil11 {fill:#FCD66E}
    .fil12 {fill:#FECA3B}
    .fil15 {fill:#FFC502}
    .fil7 {fill:#FFCCD4}
    .fil17 {fill:#FFCDCD}
    .fil18 {fill:#FFE7E7}
    .fil23 {fill:#FFE9E9}
    .fil2 {fill:white}
    .fil0 {fill:#4D4CD0;fill-opacity:0.050980}
    .fil4 {fill:#407C00;fill-opacity:0.149020}
    .fil6 {fill:#62A71A;fill-opacity:0.215686}
    .fil5 {fill:#498F00;fill-opacity:0.262745}
   ]]>
  </style>
 </defs>
 <g id="Слой_x0020_1">
  <metadata id="CorelCorpID_0Corel-Layer"/>
  <g id="_2317615554672">
   <g id="_1919249540944">
    <g id="_2097077879520">
     <g id="Page-1">
      <g id="Main">
       <g id="Group-7">
        <g id="Group-6">
         <path id="Rectangle" class="fil0" d="M534.61 576.22c24.11,-97.42 133.08,-162.41 263.71,-121.15 61.71,19.49 168.07,108.82 319.08,267.99 126.84,-25.57 213.61,-25.57 260.3,0 46.69,25.57 64.24,66.92 52.63,124.05 -437.16,-0.58 -655.74,-0.58 -655.74,0 -186.58,-27.14 -268.84,-154.25 -239.98,-270.89l0 0z"/>
         <path class="fil1" d="M759.64 847.11l675.09 0c0.48,0 0.88,0.39 0.88,0.88l0 0c0,0.49 -0.4,0.88 -0.88,0.88l-675.09 0c-0.48,0 -0.88,-0.39 -0.88,-0.88l0 0c0,-0.49 0.4,-0.88 0.88,-0.88z"/>
        </g>
        <g id="Group-5">
         <polygon id="Rectangle_0" class="fil2" points="774.59,157.96 1142.89,144.81 1142.89,833.08 774.59,846.23 "/>
         <polygon id="Rectangle_1" class="fil3" points="806.23,180.82 988.19,177.45 988.19,195.03 806.23,198.4 "/>
         <polygon id="Rectangle_2" class="fil3" points="806.23,220.22 988.19,216.86 988.19,234.44 806.23,237.8 "/>
         <polygon id="Rectangle_3" class="fil3" points="806.23,259.78 988.19,256.41 988.19,273.99 806.23,277.36 "/>
         <polygon id="Rectangle_4" class="fil3" points="806.23,306.36 1109.49,303 1109.49,320.58 806.23,323.95 "/>
         <polygon id="Rectangle_5" class="fil3" points="806.23,458.43 1109.49,455.07 1109.49,472.65 806.23,476.01 "/>
         <polygon id="Rectangle_6" class="fil3" points="886.22,491.84 1109.49,488.47 1109.49,506.05 886.22,509.42 "/>
         <polygon id="Rectangle_7" class="fil3" points="886.22,525.24 1109.49,521.88 1109.49,539.46 886.22,542.82 "/>
         <polygon id="Rectangle_8" class="fil3" points="858.09,558.64 1109.49,555.28 1109.49,572.86 858.09,576.22 "/>
         <polygon id="Rectangle_9" class="fil4" points="806.23,592.05 1109.49,588.68 1109.49,606.26 806.23,609.63 "/>
         <polygon id="Rectangle_10" class="fil5" points="858.09,627.21 1109.49,623.84 1109.49,641.42 858.09,644.79 "/>
         <polygon id="Rectangle_11" class="fil3" points="806.23,660.61 1109.49,657.25 1109.49,674.82 806.23,678.19 "/>
         <polygon id="Rectangle_12" class="fil3" points="875.67,695.77 1109.49,692.41 1109.49,709.99 875.67,713.35 "/>
         <polygon id="Rectangle_13" class="fil6" points="806.23,349.44 958.3,346.07 958.3,363.65 806.23,367.02 "/>
         <polygon id="Rectangle_14" class="fil3" points="806.23,387.23 958.3,383.87 958.3,401.45 806.23,404.81 "/>
         <polygon id="Rectangle_15" class="fil3" points="806.23,425.03 958.3,421.67 958.3,439.25 806.23,442.61 "/>
         <polygon id="Rectangle_16" class="fil3" points="968.85,344.47 1109.91,341.31 1109.91,436 968.85,437.95 "/>
         <polygon id="Rectangle_17" class="fil7" points="1008.83,177.1 1109.91,173.78 1109.91,272.83 1008.83,274.87 "/>
        </g>
        <g id="Group-2">
         <polygon id="Rectangle_18" class="fil8" points="817.66,760.97 802.93,789.1 697.23,774.96 "/>
         <polygon id="Rectangle_19" class="fil9" points="807.11,818.98 803.38,789.05 698.11,775.03 798.63,797.01 "/>
         <polygon id="Rectangle_20" class="fil10" points="807.11,818.98 798.63,797.01 698.11,775.03 "/>
         <polygon id="Rectangle_21" class="fil8" points="798.32,796.93 784.07,826.89 698.11,775.03 "/>
        </g>
        <g id="Group">
         <polygon id="Rectangle_22" class="fil11" points="1038.29,736.36 1027.46,758.33 947.75,747.03 "/>
         <polygon id="Rectangle_23" class="fil12" points="1030.38,781.19 1027.55,757.84 947.75,746.9 1023.95,764.05 "/>
         <polygon id="Rectangle_24" class="fil13" points="1030.38,781.19 1023.95,764.05 947.75,746.9 "/>
         <polygon id="Rectangle_25" class="fil11" points="1023.35,763.61 1012.6,786.46 947.75,746.9 "/>
        </g>
        <g id="Group-4">
         <path id="Combined-Shape" class="fil14" d="M1062.46 255.53c-8.98,0 -16.26,-7.47 -16.26,-16.7 0,-9.22 7.28,-16.7 16.26,-16.7 8.99,0 16.27,7.48 16.27,16.7 0,9.23 -7.28,16.7 -16.27,16.7zm0 -3.51c7.04,0 12.75,-5.91 12.75,-13.19 0,-7.28 -5.71,-13.18 -12.75,-13.18 -7.04,0 -12.74,5.9 -12.74,13.18 0,7.28 5.7,13.19 12.74,13.19z"/>
         <path id="Rectangle_26" class="fil14" d="M1053.81 251.75l4.49 2.09 -19.23 33.35c-0.65,1.13 -2.05,1.57 -3.23,1.01 -1.07,-0.5 -1.53,-1.78 -1.02,-2.85 0.02,-0.05 0.04,-0.09 0.07,-0.14l18.92 -33.46z"/>
        </g>
        <g id="Group-3">
         <polygon id="Rectangle_27" class="fil15" points="1180.8,816.25 1196.95,817.51 1194.15,837.98 1183.43,836.29 "/>
         <polygon id="Rectangle_28" class="fil16" points="1167.26,846.83 1197.83,846.83 1194.15,838.39 1183.43,836.29 "/>
         <polygon id="Rectangle_29" class="fil17" points="1210.13,269.53 1229.59,261.07 1242.47,278.86 1212.79,293.39 "/>
         <path id="Rectangle_30" class="fil18" d="M1187 263.17l-3.57 -3.07 3.91 -5.55 3.24 -28.82 36.48 17.47 -1.04 19.97c-4.96,6.61 -9.48,10.88 -13.57,12.81 -4.09,1.94 -11.37,3.26 -21.87,3.97 -1.79,-3.87 -2.88,-6.74 -3.24,-8.62 -0.36,-1.88 -0.48,-4.6 -0.34,-8.16z"/>
         <path id="Rectangle_31" class="fil19" d="M1184.48 211.54c2.51,-11.92 12.37,-13.29 29.57,-4.09 9.1,0.69 16.7,2.64 22.8,5.84 5.33,2.81 8.01,10.32 10.6,16.99 1.85,4.77 4.89,5.97 4.06,11.45 -1.95,12.93 -18.94,25.36 -22.3,25.36 -3.35,0 -3.83,-2.16 -6.17,-2.16 -1.56,0 -2.56,-0.88 -3,-2.65 1.78,0 3.26,-1.28 4.45,-3.84 1.79,-3.84 0.89,-12.54 -0.92,-14.2 -2.36,-2.18 -4.64,-1.94 -6.83,0.7 -1.5,-6.54 -7.19,-10.41 -17.07,-11.63 -14.82,-1.83 -17.04,-13 -15.19,-21.77z"/>
         <path id="Rectangle_32" class="fil20" d="M1171.9 510.92l38.77 201.12 -12.36 106.97c-4.12,0.85 -7.35,1.13 -9.7,0.85 -2.35,-0.28 -5.32,-1.31 -8.93,-3.09 -11.68,-55.18 -18.01,-100.57 -18.97,-136.16 -0.96,-35.59 2.77,-92.16 11.19,-169.69z"/>
         <path id="Rectangle_33" class="fil21" d="M1265.39 304.38c21.94,40.59 32.91,66.81 32.91,78.64 0,11.83 -3.66,20.71 -10.99,26.65l-21.92 -105.29z"/>
         <polygon id="Rectangle_34" class="fil22" points="1250.11,838.66 1260.65,840.54 1259.14,823.89 1246.62,827.91 "/>
         <path id="Rectangle_35" class="fil23" d="M1127.66 324l36.09 4.53 -9.34 50.53c-23.99,-6.94 -41.82,-16.2 -53.5,-27.78 -11.68,-11.57 -26.41,-34.09 -44.17,-67.57 -2.68,0.45 -5.39,0.16 -8.12,-0.86 -4.11,-1.54 -9.59,-4.2 -10.55,-7.35 -0.95,-3.14 2.9,-11.02 3.93,-12.73 1.03,-1.71 1.34,-1.98 4.67,-1.59 3.34,0.38 5.61,3.78 6.58,2.9 0.96,-0.88 -3.54,-5.12 -2.96,-6.44 0.38,-0.88 1.37,-0.88 2.96,0 4.3,3.25 6.85,5.39 7.65,6.44 0.79,1.05 1.74,5.28 2.83,12.69l63.93 47.23z"/>
         <path id="Rectangle_36" class="fil24" d="M1246.12 828.56c2.28,0.61 4.87,0.61 7.78,0 2.9,-0.6 4.89,-2.01 5.96,-4.22 -0.53,-51.41 -1.68,-85.48 -3.43,-102.21 -3.76,-35.92 -10.31,-59.1 -10.31,-59.1 9.16,-23.46 23.17,-72.27 42.01,-146.44l-116.23 -3.5c3.92,67.97 10.26,120.55 19.01,157.73 8.75,37.19 27.15,89.77 55.21,157.74z"/>
         <path id="Rectangle_37" class="fil14" d="M1164.49 324.65l24.63 -1.2c7.62,-13.46 14.38,-22.94 20.28,-28.44 5.9,-5.49 16.54,-11.45 31.91,-17.88 18.9,10.61 32.28,34.67 40.14,72.2 7.87,37.53 11.25,93.44 10.14,167.73 -3.86,9.26 -24.23,12.98 -61.11,11.17 -36.87,-1.82 -57.31,-6.34 -61.31,-13.58l7.12 -129.06c-5.16,-0.1 -9.09,-0.39 -11.8,-0.88 -2.7,-0.49 -6.48,-1.59 -11.33,-3.31 -2.32,-9.44 -2.32,-20.13 0,-32.07 2.33,-11.93 6.11,-20.16 11.33,-24.68z"/>
         <rect id="Rectangle_38" class="fil25" x="1186.84" y="470.01" width="41.31" height="14.94"/>
         <path id="Rectangle_39" class="fil25" d="M1176.29 385.59c15.4,2.07 27.54,2.07 36.43,0 8.89,-2.07 21.04,-7.72 36.43,-16.95 -13.67,13.33 -24.92,22.49 -33.77,27.47 -8.84,4.98 -22.32,9.5 -40.45,13.56l1.36 -24.08z"/>
         <polygon id="Rectangle_40" class="fil16" points="1250.11,838.92 1260.65,841.35 1262.94,846.83 1237.64,846.83 "/>
        </g>
       </g>
      </g>
     </g>
    </g>
   </g>
   <rect class="fil26" x="-0.04" y="-0" width="1600.04" height="900"/>
  </g>
 </g>
</svg>
