<?xml version="1.0" encoding="UTF-8"?>
<svg width="101px" height="187px" viewBox="0 0 101 187" version="1.1" xmlns="http://www.w3.org/2000/svg" xmlns:xlink="http://www.w3.org/1999/xlink">
    <!-- Generator: Sketch 56.2 (81672) - https://sketch.com -->
    <title>Group 2</title>
    <desc>Created with Sketch.</desc>
    <g id="Page-1" stroke="none" stroke-width="1" fill="none" fill-rule="evenodd">
        <g id="Login" transform="translate(-518.000000, -837.000000)" fill="#6236FF">
            <g id="Group-2" transform="translate(518.000000, 837.000000)">
                <path d="M-1.70530257e-13,123 C15.0235759,125.666667 31.1174067,127 48.2814924,127 C65.4455781,127 81.5394089,125.666667 96.5629848,123 L87.7814924,187 L8.78149242,187 L-1.70530257e-13,123 Z" id="Rectangle" fill-opacity="0.536358173"></path>
                <ellipse id="Oval" cx="48.5" cy="123" rx="48.5" ry="4"></ellipse>
                <path d="M37.0293204,17.015954 C42.0592545,-6.65614246 69.4701483,-3.49898458 76.3136239,13.4524768 C83.1570995,30.4039382 68.4433116,44.1225755 70.7253908,47.9994769 C73.0074701,51.8763782 82.6294413,42.2749231 86.5884752,51.8763782 C90.547509,61.4778334 66.0433874,75.4538205 72.5241963,83.5681184 C79.0050053,91.6824163 88.564689,66.7165617 98.4732711,75.5216954 C108.381853,84.326829 80.1394973,103.033321 100.069218,123 C86.5884752,123 64.3939818,123 37.0293204,123 C47.6816579,98.8446068 6.93672765,79.5205 16.9424986,65.6984391 C26.9482695,51.8763782 43.4029124,78.7307148 47.6816579,67.1048858 C51.9604033,55.4790568 31.9993864,40.6880504 37.0293204,17.015954 Z" id="Rectangle" transform="translate(58.000000, 61.500000) scale(-1, 1) translate(-58.000000, -61.500000) "></path>
                <path d="M10.9794825,54.928946 C14.2224537,39.7249166 31.8951986,41.7526847 36.3074225,52.6402087 C40.7196463,63.5277327 31.2331618,72.33889 32.7044966,74.8289323 C34.1758315,77.3189746 40.3794469,71.1521864 42.9319721,77.3189746 C45.4844972,83.4857629 29.6858482,92.4622099 33.8642483,97.6738322 C38.0426485,102.885454 44.206105,86.8504746 50.5945083,92.5058043 C56.9829117,98.1611341 38.7740945,110.175873 51.62347,123 C42.9319721,123 35.4903476,123 17.8474103,123 C24.7153382,107.48556 6.66577904e-13,107.48556 2.44112092,95.6120954 C4.88224184,83.7386303 15.0887562,94.5668819 17.8474103,87.099886 C20.6060645,79.6328901 7.73651119,70.1329755 10.9794825,54.928946 Z" id="Rectangle" fill-opacity="0.230332168"></path>
                <path d="M37.0293204,17.015954 C42.0592545,-6.65614246 69.4701483,-3.49898458 76.3136239,13.4524768 C83.1570995,30.4039382 68.4433116,44.1225755 70.7253908,47.9994769 C73.0074701,51.8763782 82.6294413,42.2749231 86.5884752,51.8763782 C90.547509,61.4778334 66.0433874,75.4538205 72.5241963,83.5681184 C79.0050053,91.6824163 88.564689,66.7165617 98.4732711,75.5216954 C108.381853,84.326829 80.1394973,103.033321 100.069218,123 C86.5884752,123 64.3939818,123 37.0293204,123 C47.6816579,98.8446068 6.93672765,79.5205 16.9424986,65.6984391 C26.9482695,51.8763782 43.4029124,78.7307148 47.6816579,67.1048858 C51.9604033,55.4790568 31.9993864,40.6880504 37.0293204,17.015954 Z" id="Rectangle" transform="translate(58.000000, 61.500000) scale(-1, 1) translate(-58.000000, -61.500000) "></path>
                <path d="M10.9794825,54.928946 C14.2224537,39.7249166 31.8951986,41.7526847 36.3074225,52.6402087 C40.7196463,63.5277327 31.2331618,72.33889 32.7044966,74.8289323 C34.1758315,77.3189746 40.3794469,71.1521864 42.9319721,77.3189746 C45.4844972,83.4857629 29.6858482,92.4622099 33.8642483,97.6738322 C38.0426485,102.885454 44.206105,86.8504746 50.5945083,92.5058043 C56.9829117,98.1611341 38.7740945,110.175873 51.62347,123 C42.9319721,123 35.4903476,123 17.8474103,123 C24.7153382,107.48556 -1.1524115e-12,107.48556 2.44112092,95.6120954 C4.88224184,83.7386303 15.0887562,94.5668819 17.8474103,87.099886 C20.6060645,79.6328901 7.73651119,70.1329755 10.9794825,54.928946 Z" id="Rectangle" fill-opacity="0.230332168"></path>
            </g>
        </g>
    </g>
</svg>